<?xml version="1.0" encoding="utf-8"?>
<!-- Generator: Adobe Illustrator 24.3.0, SVG Export Plug-In . SVG Version: 6.00 Build 0)  -->
<svg version="1.1" xmlns="http://www.w3.org/2000/svg" xmlns:xlink="http://www.w3.org/1999/xlink" x="0px" y="0px"
	 viewBox="0 0 500 500" style="enable-background:new 0 0 500 500;" xml:space="preserve">
<style type="text/css">
	.st0{fill:#FFFFFF;}
	.st1{fill:#09203F;}
</style>
<g id="BACKGROUND">
	<rect class="st0" width="500" height="500"/>
</g>
<g id="OBJECTS">
	<g>
		<g>
			<path class="st1" d="M204.96,302.35c0,0-11.37,0.44-8.55,14.55C207.69,313.76,204.96,302.35,204.96,302.35z"/>
			<path class="st1" d="M184.81,307.67c11.66,1.06,13.15-10.57,13.15-10.57S187.17,293.48,184.81,307.67z"/>
			<path class="st1" d="M173.71,307.83c10.42-5.35,5.43-15.97,5.43-15.97S168.1,294.59,173.71,307.83z"/>
			<path class="st1" d="M161.47,296.72c11.57,1.85,13.83-9.66,13.83-9.66S164.78,282.72,161.47,296.72z"/>
			<path class="st1" d="M148.22,309.78c11.71-0.09,12.04-11.82,12.04-11.82S149.16,295.42,148.22,309.78z"/>
			<path class="st1" d="M154.86,291.06c0,0-9.48-6.3-15.44,6.79C150.41,301.91,154.86,291.06,154.86,291.06z"/>
			<path class="st1" d="M128.66,295.12c11.45-2.46,9.4-14.01,9.4-14.01S126.68,280.87,128.66,295.12z"/>
			<path class="st1" d="M135.6,275.48c0,0-9.03-6.93-15.87,5.73C130.41,286,135.6,275.48,135.6,275.48z"/>
			<path class="st1" d="M154.77,283.5c10.16,5.83,16.36-4.13,16.36-4.13S162.83,271.58,154.77,283.5z"/>
			<path class="st1" d="M144.62,279.02c11.7-0.52,11.59-12.26,11.59-12.26S145.03,264.64,144.62,279.02z"/>
			<path class="st1" d="M180.45,248.43c0,0-8.5,7.57,2.66,16.66C189.82,255.5,180.45,248.43,180.45,248.43z"/>
			<path class="st1" d="M175.11,236.6c0,0-11.33,1.08-7.72,15C178.48,247.84,175.11,236.6,175.11,236.6z"/>
			<path class="st1" d="M86.2,240.1c0,0-8.5,7.57,2.66,16.66C95.57,247.16,86.2,240.1,86.2,240.1z"/>
			<path class="st1" d="M72.25,251.15c11.09-3.76,7.72-15,7.72-15S68.64,237.22,72.25,251.15z"/>
			<path class="st1" d="M191.53,266.47c10.31-5.55,5.12-16.08,5.12-16.08S185.66,253.33,191.53,266.47z"/>
			<path class="st1" d="M150.97,261.67c11.61-1.54,10.49-13.22,10.49-13.22S150.14,247.31,150.97,261.67z"/>
			<path class="st1" d="M142.75,266.82c8.98-7.52,1.77-16.78,1.77-16.78S134.34,255.14,142.75,266.82z"/>
			<path class="st1" d="M133.34,255.48c0,0-11.22-1.91-11.36,12.48C133.67,267.2,133.34,255.48,133.34,255.48z"/>
			<path class="st1" d="M155,244.09c11.71,0.41,12.53-11.3,12.53-11.3S156.55,229.79,155,244.09z"/>
			<path class="st1" d="M143.93,244.88c10.1-5.93,4.53-16.25,4.53-16.25S137.58,231.97,143.93,244.88z"/>
			<path class="st1" d="M292.85,156.41c0,0-2.58,11.09,11.78,12.08C304.57,156.78,292.85,156.41,292.85,156.41z"/>
			<path class="st1" d="M278.35,151.7c0,0-5.63,9.89,7.85,14.94C289.49,155.4,278.35,151.7,278.35,151.7z"/>
			<path class="st1" d="M296.74,185.15c5.41-10.39-4.8-16.18-4.8-16.18S284.51,177.58,296.74,185.15z"/>
			<path class="st1" d="M270.88,155.72c0,0-8.77,7.26,2.05,16.75C279.99,163.12,270.88,155.72,270.88,155.72z"/>
			<path class="st1" d="M256.51,168.94c0,0-3.51,10.83,10.71,13.04C268.17,170.31,256.51,168.94,256.51,168.94z"/>
			<path class="st1" d="M319.38,270.86c0,0-8.13,8.46,0.01,16.87C328.96,277,319.38,270.86,319.38,270.86z"/>
			<path class="st1" d="M334.06,285.64c5.15-13.43-5.99-15.77-5.99-15.77S323.46,280.66,334.06,285.64z"/>
			<path class="st1" d="M343.55,291.4c11.55-8.58,3.4-16.53,3.4-16.53S337.27,281.51,343.55,291.4z"/>
			<path class="st1" d="M352.69,272.68c0,0-3.87,11.08,7.04,15.33C363.96,274.27,352.69,272.68,352.69,272.68z"/>
			<path class="st1" d="M357.47,305.06c6.45-12.86-4.4-16.29-4.4-16.29S347.41,299.06,357.47,305.06z"/>
			<path class="st1" d="M312.17,329.27c-12.35-7.38-16.57,3.19-16.57,3.19S305.44,338.85,312.17,329.27z"/>
			<path class="st1" d="M373.34,281.28c0,0-1.65,11.62,9.88,13.68C384.71,280.65,373.34,281.28,373.34,281.28z"/>
			<path class="st1" d="M372.2,280c-0.91-14.36-12.02-11.85-12.02-11.85S360.49,279.89,372.2,280z"/>
			<path class="st1" d="M379.43,264.84c0,0-6.03,10.06,3.79,16.44C390.15,268.67,379.43,264.84,379.43,264.84z"/>
			<path class="st1" d="M363.4,264.63c6.5-12.84-4.34-16.3-4.34-16.3S353.37,258.59,363.4,264.63z"/>
			<path class="st1" d="M372.34,236.45c0,0-8.6,7.99-0.93,16.85C381.57,243.11,372.34,236.45,372.34,236.45z"/>
			<path class="st1" d="M325.79,288.45c0,0-9.8,6.45-3.72,16.46C333.78,296.55,325.79,288.45,325.79,288.45z"/>
			<path class="st1" d="M285.15,337.67c11.71-8.36,3.72-16.46,3.72-16.46S279.06,327.67,285.15,337.67z"/>
			<path class="st1" d="M308.25,345.2c0,0-7.29-9.19-16.72-2.25C300.88,353.88,308.25,345.2,308.25,345.2z"/>
			<path class="st1" d="M295.58,360.34c0,0,3.25-11.28-7.89-14.92C284.24,359.39,295.58,360.34,295.58,360.34z"/>
			<path class="st1" d="M384.17,246.4c0,0-6.88,9.5,2.35,16.71C394.51,251.14,384.17,246.4,384.17,246.4z"/>
			<path class="st1" d="M391.01,271.71c13.16-5.82,6.97-15.37,6.97-15.37S387.08,260.68,391.01,271.71z"/>
			<path class="st1" d="M392.49,249.21c5.9-13.12-5.09-16.09-5.09-16.09S382.19,243.64,392.49,249.21z"/>
			<path class="st1" d="M401.1,252.18c12.01-7.92,4.32-16.31,4.32-16.31S395.39,241.96,401.1,252.18z"/>
			<path class="st1" d="M412.01,233.89c0,0-3.38,11.24,7.71,15.01C423.33,234.98,412.01,233.89,412.01,233.89z"/>
			<path class="st1" d="M256.88,61.97c-9.17,7.28-2.21,16.73-2.21,16.73S264.97,73.87,256.88,61.97z"/>
			<path class="st1" d="M258.23,88.82c0,0,11.35-0.87,7.99-14.86C255.06,77.52,258.23,88.82,258.23,88.82z"/>
			<path class="st1" d="M282.53,78.31c0,0,9.11-6.82-1.22-16.83C273.8,70.47,282.53,78.31,282.53,78.31z"/>
			<path class="st1" d="M272.2,100.95c0,0,9.22-6.67-0.96-16.85C263.6,92.98,272.2,100.95,272.2,100.95z"/>
			<path class="st1" d="M304.04,49.76c-10.75,4.65-6.48,15.58-6.48,15.58S308.76,63.35,304.04,49.76z"/>
			<path class="st1" d="M291.61,59.04c0,0,6.93-9.03-5.73-15.87C281.09,53.86,291.61,59.04,291.61,59.04z"/>
			<path class="st1" d="M314.02,58.79c-11.7,0.54-11.58,12.27-11.58,12.27S313.63,73.17,314.02,58.79z"/>
			<path class="st1" d="M327.76,55.64c-9.59,6.73-3.2,16.57-3.2,16.57S335.13,68,327.76,55.64z"/>
			<path class="st1" d="M341.41,64.98c-11.71-0.26-12.39,11.46-12.39,11.46S340.03,79.3,341.41,64.98z"/>
			<path class="st1" d="M308.23,76.52c-11.63-1.41-13.46,10.18-13.46,10.18S305.46,90.64,308.23,76.52z"/>
			<path class="st1" d="M348.13,124.25c-11.63-1.41-13.46,10.18-13.46,10.18S345.36,138.37,348.13,124.25z"/>
			<path class="st1" d="M313.43,92.49c0,0,11.12-2.4,5.91-15.81C308.76,81.73,313.43,92.49,313.43,92.49z"/>
			<path class="st1" d="M307.37,89.16c-10.56,5.07-5.86,15.82-5.86,15.82S312.63,102.55,307.37,89.16z"/>
			<path class="st1" d="M299,116.69c0,0,4.88-10.28-8.94-14.31C287.62,113.84,299,116.69,299,116.69z"/>
			<path class="st1" d="M299.23,148.62c0,0-3.51-10.83-16.32-4.29C288.99,154.35,299.23,148.62,299.23,148.62z"/>
			<path class="st1" d="M293.7,135.06c0,0,6.84-9.1-5.89-15.81C283.12,129.98,293.7,135.06,293.7,135.06z"/>
			<path class="st1" d="M315.72,111.4c0,0,10.87-3.36,4.51-16.26C310.14,101.08,315.72,111.4,315.72,111.4z"/>
			<path class="st1" d="M325.81,87.2c-5.34,10.43,4.91,16.14,4.91,16.14S338.1,94.68,325.81,87.2z"/>
			<path class="st1" d="M338.89,93.98c0,0,11.08-2.61,5.6-15.92C334.01,83.31,338.89,93.98,338.89,93.98z"/>
			<path class="st1" d="M360.42,80.47c-10.94,4.18-7.14,15.28-7.14,15.28S364.55,94.25,360.42,80.47z"/>
			<path class="st1" d="M335.43,124.6c0,0,8.72-7.32-2.16-16.73C326.27,117.26,335.43,124.6,335.43,124.6z"/>
			<path class="st1" d="M333.73,146.92c0,0,4.07-10.63-10.01-13.58C322.17,144.95,333.73,146.92,333.73,146.92z"/>
			<path class="st1" d="M97.7,258.52c10.1-5.93,4.53-16.25,4.53-16.25S91.35,245.61,97.7,258.52z"/>
			<path class="st1" d="M69.79,199.54c3.64,11.13,14.91,7.89,14.91,7.89S83.76,196.09,69.79,199.54z"/>
			<path class="st1" d="M65.6,207.35c0,0,4.64-10.39-9.25-14.11C54.16,204.75,65.6,207.35,65.6,207.35z"/>
			<path class="st1" d="M78.49,187.54c-0.54,11.7,11.15,12.66,11.15,12.66S92.78,189.26,78.49,187.54z"/>
			<path class="st1" d="M94.03,181.17c0,0-3.22-10.92-16.2-4.71C83.65,186.63,94.03,181.17,94.03,181.17z"/>
			<path class="st1" d="M98.66,177.12c0,0,3.87-10.7-10.27-13.39C87.05,175.37,98.66,177.12,98.66,177.12z"/>
			<path class="st1" d="M80.87,166.63c0,0,2.04-11.2-12.35-11.5C69.14,166.83,80.87,166.63,80.87,166.63z"/>
			<path class="st1" d="M93.75,156.88c0,0,5.87-9.75-7.48-15.13C82.7,152.91,93.75,156.88,93.75,156.88z"/>
			<path class="st1" d="M106.16,172.61c0,0,7.41-8.64-4.86-16.16C95.93,166.86,106.16,172.61,106.16,172.61z"/>
			<path class="st1" d="M109,150.93c1.05,11.67,12.76,11.03,12.76,11.03S123.38,150.7,109,150.93z"/>
			<path class="st1" d="M139.45,184.69c0,0-7.95-8.15-16.53,3.4C132.82,194.36,139.45,184.69,139.45,184.69z"/>
			<path class="st1" d="M153.64,182.26c0,0-1.58-11.27-15.33-7.04C142.56,186.13,153.64,182.26,153.64,182.26z"/>
			<path class="st1" d="M145.62,201.32c0,0-3.43-10.85-16.29-4.4C135.34,206.97,145.62,201.32,145.62,201.32z"/>
			<path class="st1" d="M139.08,168.7c0,0,0.64-11.36-13.67-9.88C127.46,170.35,139.08,168.7,139.08,168.7z"/>
			<path class="st1" d="M137.73,155.35c6.48,9.76,16.48,3.63,16.48,3.63S150.27,148.3,137.73,155.35z"/>
			<path class="st1" d="M134.26,144.7c0,0-5.55-9.93-16.84-1.01C125.33,152.32,134.26,144.7,134.26,144.7z"/>
			<path class="st1" d="M103.54,200.16c0,0,2.04-11.2-12.35-11.5C91.81,200.36,103.54,200.16,103.54,200.16z"/>
			<path class="st1" d="M108.07,190.51c0,0,11.2-2.02,6.44-15.6C103.77,179.59,108.07,190.51,108.07,190.51z"/>
			<path class="st1" d="M121.83,206.96c0,0,7.41-8.64-4.86-16.16C111.6,201.22,121.83,206.96,121.83,206.96z"/>
			<path class="st1" d="M132.19,178.12c0,0,1.62-11.26-12.76-11.03C120.47,178.76,132.19,178.12,132.19,178.12z"/>
			<path class="st1" d="M104.94,205.8c0,0-9.81-5.77-15.05,7.62C101.08,216.88,104.94,205.8,104.94,205.8z"/>
			<path class="st1" d="M52.68,215.83c7.12,9.3,16.69,2.5,16.69,2.5S64.71,207.94,52.68,215.83z"/>
			<path class="st1" d="M426.92,210.79c0,0-6.16,9.99,3.59,16.49C437.59,214.75,426.92,210.79,426.92,210.79z"/>
			<path class="st1" d="M428.35,201.52c0,0,0.95,11.69,12.65,11.16C439.3,198.4,428.35,201.52,428.35,201.52z"/>
			<path class="st1" d="M432.2,191.36c0,0,3.96,11.05,15.12,7.49C441.96,185.5,432.2,191.36,432.2,191.36z"/>
			<path class="st1" d="M407.64,215.15c0,0-1.43,11.65,10.13,13.49C418.99,214.31,407.64,215.15,407.64,215.15z"/>
			<path class="st1" d="M416.42,179.81c0,0,11.68-1.08,11.02-12.78C413.18,168.9,416.42,179.81,416.42,179.81z"/>
			<path class="st1" d="M437.68,160.72c-11.59,8.52-3.49,16.51-3.49,16.51S443.9,170.64,437.68,160.72z"/>
			<path class="st1" d="M409.19,174.87c0,0,10.54-5.15,5.78-15.85C402.29,165.82,409.19,174.87,409.19,174.87z"/>
			<path class="st1" d="M398.18,158.75c0,0,11.66,1.3,13.38-10.28C397.21,147.41,398.18,158.75,398.18,158.75z"/>
			<path class="st1" d="M369.49,168.89c0,0,11.66,1.3,13.38-10.28C368.52,157.55,369.49,168.89,369.49,168.89z"/>
			<path class="st1" d="M392.4,156.65c0,0,10.17-5.85,4.69-16.21C384.9,148.09,392.4,156.65,392.4,156.65z"/>
			<path class="st1" d="M382.42,138.36c-8.69,11.46,1.35,16.82,1.35,16.82S391.21,146.11,382.42,138.36z"/>
			<path class="st1" d="M393.34,194.97c-8.69,11.46,1.35,16.82,1.35,16.82S402.13,202.71,393.34,194.97z"/>
			<path class="st1" d="M366.44,181.37c0,0,11.3,3.17,14.86-7.99C367.31,170.02,366.44,181.37,366.44,181.37z"/>
			<path class="st1" d="M365.42,201.38c0,0,11.63,1.53,13.57-10.03C364.66,190.03,365.42,201.38,365.42,201.38z"/>
			<path class="st1" d="M355.21,186.44c0,0,0.72-11.71-10.94-12.84C343.93,187.98,355.21,186.44,355.21,186.44z"/>
			<path class="st1" d="M334.87,183.31c0,0,8.69-7.88,1.13-16.83C325.72,176.54,334.87,183.31,334.87,183.31z"/>
			<path class="st1" d="M403.55,164.69c-13.29,5.51-7.32,15.2-7.32,15.2S407.23,175.8,403.55,164.69z"/>
			<path class="st1" d="M392.54,137.01c0,0,0.03-11.73-11.67-12.19C381.38,139.2,392.54,137.01,392.54,137.01z"/>
			<path class="st1" d="M350.71,210.34c0,0,7.44-9.07-1.35-16.82C340.67,204.98,350.71,210.34,350.71,210.34z"/>
			<path class="st1" d="M362.35,177.93c0,0,6.57-9.72-2.9-16.62C351.86,173.53,362.35,177.93,362.35,177.93z"/>
			<path class="st1" d="M412,189.36c-9.76-10.57-16.79-1.62-16.79-1.62S402.83,196.65,412,189.36z"/>
			<path class="st1" d="M434.79,182.03c-14.08-2.96-14.63,8.4-14.63,8.4S431.54,193.28,434.79,182.03z"/>
			<path class="st1" d="M155.83,138.4c0,0,2.51-11.1-11.85-12.02C144.1,138.09,155.83,138.4,155.83,138.4z"/>
			<path class="st1" d="M139.39,143.88c6.38,9.83,16.44,3.8,16.44,3.8S152,136.96,139.39,143.88z"/>
			<path class="st1" d="M257,236.05c0,0,1.62-11.26-12.76-11.03C245.28,236.69,257,236.05,257,236.05z"/>
			<path class="st1" d="M206.96,283.54c0,0,1.62-11.26-12.76-11.03C195.24,284.17,206.96,283.54,206.96,283.54z"/>
			<path class="st1" d="M274.69,258.78c0,0-7.95-8.15-16.53,3.4C268.05,268.45,274.69,258.78,274.69,258.78z"/>
			<path class="st1" d="M288.87,256.34c0,0-1.58-11.27-15.33-7.04C277.79,260.21,288.87,256.34,288.87,256.34z"/>
			<path class="st1" d="M260.64,232.9c2.06,11.53,13.67,9.88,13.67,9.88S274.95,231.42,260.64,232.9z"/>
			<path class="st1" d="M289.44,233.07c0,0-3.94-10.68-16.48-3.63C279.44,239.2,289.44,233.07,289.44,233.07z"/>
			<path class="st1" d="M252.65,217.77c7.92,8.63,16.84,1.01,16.84,1.01S263.94,208.85,252.65,217.77z"/>
			<path class="st1" d="M123.83,133.2c0,0-5.55-9.93-16.84-1.01C114.91,140.82,123.83,133.2,123.83,133.2z"/>
			<path class="st1" d="M253.69,196.76c-10.74,4.68-6.44,15.6-6.44,15.6S258.46,210.34,253.69,196.76z"/>
			<path class="st1" d="M267.42,252.21c0,0,1.62-11.26-12.76-11.03C255.71,252.84,267.42,252.21,267.42,252.21z"/>
			<path class="st1" d="M281.03,192.84c0,0,6.96-9.01-5.68-15.89C270.52,187.62,281.03,192.84,281.03,192.84z"/>
			<path class="st1" d="M291.06,221.77c0,0-3.83-10.72-16.44-3.8C281,227.8,291.06,221.77,291.06,221.77z"/>
			<path class="st1" d="M238.81,201.93c2.34-11.48-9.07-14.23-9.07-14.23S224.96,198.03,238.81,201.93z"/>
			<path class="st1" d="M188.03,135.89c-2.35,11.48,9.06,14.24,9.06,14.24S201.87,139.8,188.03,135.89z"/>
			<path class="st1" d="M171.85,146.4c0,0,11.28,1.48,10.88-12.9C171.07,134.69,171.85,146.4,171.85,146.4z"/>
			<path class="st1" d="M190.69,175.48c7.67,8.85,16.81,1.49,16.81,1.49S202.23,166.89,190.69,175.48z"/>
			<path class="st1" d="M245.42,188.21c0,0,1.72-11.25-12.66-11.15C233.7,188.73,245.42,188.21,245.42,188.21z"/>
			<path class="st1" d="M241.42,217.38c0,0-0.17-11.38-14.34-8.89C229.94,219.85,241.42,217.38,241.42,217.38z"/>
			<path class="st1" d="M343.08,214.17c-11.63,1.39-10.66,13.08-10.66,13.08S343.73,228.54,343.08,214.17z"/>
			<path class="st1" d="M321.08,199.57c0,0-4.78,10.33,9.07,14.23C332.49,202.32,321.08,199.57,321.08,199.57z"/>
			<path class="st1" d="M334.75,196.08c0,0,1.72-11.25-12.66-11.15C323.03,196.6,334.75,196.08,334.75,196.08z"/>
			<path class="st1" d="M321.58,216.66c-7.27,9.19,1.67,16.79,1.67,16.79S332.18,226.39,321.58,216.66z"/>
			<path class="st1" d="M201.48,148.16c-1.34,11.64,10.26,13.4,10.26,13.4S215.61,150.85,201.48,148.16z"/>
			<path class="st1" d="M265.32,104.14c0,0-0.7-11.36-14.74-8.21C253.98,107.14,265.32,104.14,265.32,104.14z"/>
			<path class="st1" d="M198.17,131.37c5.1,10.54,15.84,5.81,15.84,5.81S211.54,126.07,198.17,131.37z"/>
			<path class="st1" d="M129.64,121.66c-1.34,11.64,10.26,13.4,10.26,13.4S143.78,124.35,129.64,121.66z"/>
			<path class="st1" d="M143.52,117.92c0,0-2.47-11.11-15.84-5.81C132.78,122.65,143.52,117.92,143.52,117.92z"/>
			<path class="st1" d="M186.41,160.44c-11.63,1.4-10.65,13.09-10.65,13.09S187.07,174.81,186.41,160.44z"/>
			<path class="st1" d="M184.2,182.37c-8.13,8.43,0.02,16.87,0.02,16.87S193.79,193.09,184.2,182.37z"/>
			<path class="st1" d="M202.43,168.6c0,0,4.79-10.32-9.06-14.24C191.02,165.84,202.43,168.6,202.43,168.6z"/>
			<path class="st1" d="M392.6,109.9c0,0-11.15-2.29-11.77,12.09C392.53,121.63,392.6,109.9,392.6,109.9z"/>
			<path class="st1" d="M410.19,123.56c0,0-11.15-2.29-11.77,12.09C410.13,135.29,410.19,123.56,410.19,123.56z"/>
			<path class="st1" d="M343.85,166.55c11.71-0.35,11.77-12.09,11.77-12.09S344.48,152.18,343.85,166.55z"/>
			<path class="st1" d="M379.73,101.56c0,0-5.85-9.76-16.86-0.51C371.03,109.45,379.73,101.56,379.73,101.56z"/>
			<path class="st1" d="M359.48,127.69c-0.29,11.71,11.42,12.42,11.42,12.42S373.79,129.1,359.48,127.69z"/>
			<path class="st1" d="M368,153.48c0,0,1.28-11.31-13.09-10.64C356.3,154.47,368,153.48,368,153.48z"/>
			<path class="st1" d="M379.31,113.23c0,0-4.98-10.23-16.76-1.97C369.97,120.33,379.31,113.23,379.31,113.23z"/>
			<path class="st1" d="M262.75,138.68c0,0-5.27-10.09-16.81-1.49C253.61,146.05,262.75,138.68,262.75,138.68z"/>
			<path class="st1" d="M270.26,122.93c0,0,3.87-10.7-10.26-13.4C258.66,121.17,270.26,122.93,270.26,122.93z"/>
			<path class="st1" d="M261.95,130.98c0,0,4.79-10.32-9.06-14.24C250.54,128.22,261.95,130.98,261.95,130.98z"/>
			<path class="st1" d="M224.97,79.57c0,0,9.33-6.52-0.67-16.86C216.5,71.45,224.97,79.57,224.97,79.57z"/>
			<path class="st1" d="M368.23,94.37c0,0,9.33-6.52-0.67-16.86C359.76,86.25,368.23,94.37,368.23,94.37z"/>
			<path class="st1" d="M154.73,102.1c0,0,7.41-8.64-4.86-16.16C144.5,96.35,154.73,102.1,154.73,102.1z"/>
			<path class="st1" d="M195.54,62.66c-8.23,8.34-0.18,16.87-0.18,16.87S205.01,73.49,195.54,62.66z"/>
			<path class="st1" d="M179.41,116.7c1.6,11.6,13.27,10.42,13.27,10.42S193.77,115.79,179.41,116.7z"/>
			<path class="st1" d="M177.74,105.23c0,0,7.58-8.49-4.53-16.25C167.63,99.27,177.74,105.23,177.74,105.23z"/>
			<path class="st1" d="M167.26,114.26c-3.8,11.08,7.16,15.28,7.16,15.28S180.49,119.91,167.26,114.26z"/>
			<path class="st1" d="M201.41,97.1c0,0,9.08-6.85-1.29-16.82C192.64,89.3,201.41,97.1,201.41,97.1z"/>
			<path class="st1" d="M210.24,109.78c0,0,11.29-1.46,7.21-15.25C206.49,98.66,210.24,109.78,210.24,109.78z"/>
			<path class="st1" d="M217.08,90.65c0,0,4-10.66-10.1-13.51C205.5,88.75,217.08,90.65,217.08,90.65z"/>
			<path class="st1" d="M174.71,76.63c-10.51-5.17-16.06,5.16-16.06,5.16S167.42,89.03,174.71,76.63z"/>
			<path class="st1" d="M149.56,121.9c0,0,11.38,0.07,9.19-14.15C147.34,110.38,149.56,121.9,149.56,121.9z"/>
			<path class="st1" d="M181.89,54.23c-8.23,8.34-0.18,16.87-0.18,16.87S191.36,65.06,181.89,54.23z"/>
			<path class="st1" d="M236.88,77.54c-8.87,7.65-1.52,16.8-1.52,16.8S245.45,89.09,236.88,77.54z"/>
			<path class="st1" d="M222.11,88.11c-3.38,11.21,7.72,15,7.72,15S235.54,93.27,222.11,88.11z"/>
		</g>
		<g>
			<path class="st1" d="M307.7,281.99c-0.52-1.18-1.2-2.22-2.15-2.65c-2.04-0.92-4.47,0.52-5.87,2.26
				c-4.06,5.04-5.91,13.98-5.45,26.03c6.26-6.55,8.35-15.18,12.25-23.35C306.84,283.52,307.26,282.76,307.7,281.99z"/>
			<path class="st1" d="M189.9,236.41c3.55,1.35,5.43,3.18,7.02,6.18c-0.46-2.82-1.13-5.54-1.93-7.55
				c-2.19-5.54-7.97-10.64-17.18-15.17c-10.52-5.18-20.98-0.75-30.21,5.06c7.07-1.03,14.26,1.23,21.42,2.78
				c3.99,0.86,13.03,1.43,15.74,4.97c-2.07,0.93-4.41,0.22-6.21,1.55C181.19,236.17,186.59,235.15,189.9,236.41z"/>
			<path class="st1" d="M265.05,376.78c-1.69-1.23-3.44-2.5-5.19-3.64c-2.79-1.83-6.85-4.18-9.85-3.42
				c-1.28,0.32-2.29,1.18-3.08,2.64c-1.66,3.04-0.26,8.9,3.94,16.49c4.4,7.97,15.32,17.03,25.85,19.56
				c-1.1-2.97-2.03-6.05-2.71-9.31c-5.99-2.82-15.34-8.58-14.81-13.16c0.13-1.1,0.82-2.91,4.05-2.91c0.06,0,0.12,0,0.18,0
				c2.3,0.05,5.76,1.1,9.32,2.57c-0.03-1.24-0.05-2.49-0.07-3.73c-0.92-0.49-1.86-1.04-2.8-1.68
				C268.24,379.1,266.62,377.92,265.05,376.78z"/>
			<path class="st1" d="M197.04,115.7c7.14,2.51,12.62,7.11,16.5,12.91c0.09,0.09,0.19,0.17,0.28,0.27l1.02,1.04
				c0.94,0.96,1.91,1.96,2.88,3.01c0.44,0.48,0.9,0.97,1.36,1.46c3.66,3.9,7.44,7.93,7.79,13.64c0.23,3.75-0.88,7.98-3.13,11.91
				c-1.75,3.05-3.94,5.02-6.05,6.68c-0.64,0.51-1.39,1.26-2.18,2.06c-0.45,0.46-0.9,0.91-1.36,1.35c-3.2,5.66-7.07,11.04-10.19,16.3
				c-1.2,2.03-2.3,4.11-3.28,6.25c0.16,2.63,0.61,5.41,1.17,7.77c1.14,4.85,2.91,8.71,5.43,11.79c3.87,4.75,6.67,8.57,7.56,14.58
				c1.84,12.57,8.46,21.23,19.67,25.76c3.62,1.46,7.51,2.12,11.35,2.64c-1.17-3.72-1.05-7.51-0.68-11.96
				c-2.14,1.06-5.57,8.78-6.59,1.8c-0.7-4.77,1.53-7.09-1.34-12.03c-2.06-3.54-4.61-6.69-7.01-9.97c-0.81-0.81-1.65-1.64-2.52-2.48
				c-7.03-6.87-15-14.65-14.5-25.27c0.16-3.4,1.56-10.4,5.75-12.54c1.78-0.91,3.16-0.54,4.01-0.08c0.44,0.24,0.84,0.58,1.21,0.98
				c1-3.19,2.3-6.26,3.84-9.14c2.25-4.2,4.6-9.52,9.75-10.26c4.1-0.59,14.53,6.14,17.05,1.28c-1.28-0.36-2.78-0.1-4.02-0.51
				c-1.67-0.55-2.43-2.05-4.39-2.21c1.71-6.23,11.35-6.33,16.23-8.43c6.92-2.98,12.68-9.35,16.08-15.92
				c5.66-10.92,3.65-21.81,5.69-33.33c1.6-9.04,9.52-18.1,9.29-27.31c-6.42,6.52-13.62,15.15-16.25,24.05
				c-3.21,10.85-2.26,23.27-8.4,33.08c-4.87,7.77-11.9,10.18-20.28,12.39c-3.65,0.96-5.99,1.29-6.06-2.93
				c-0.05-3.21,0.78-6.52,1.5-9.63c1.36-5.89,3.27-11.6,4.91-17.41c-3.5-0.1-7.49,6.52-8.44,9.31c-1.43,4.17-0.95,8.65-1.67,12.94
				c-0.54,3.19-2.26,8.08-5.14,9.88c-1.54-4.78-2.6-11.17-2.32-16.25c0.32-5.92,2-11.84,5.57-16.55c3.13-4.13,6.59-8.92,8.15-13.88
				c2.51-8,2.97-18.28,1.77-26.53c-3.58,3.45-2.73,11.39-3.23,16.04c-0.54,5.13-2.62,10.03-6.55,13.54
				c-3.34,2.97-6.79,5.18-9.86,8.5c-3.32,3.59-3.53,6.52-5.15,10.68c-2.14-0.06-6.24-6.75-8.23-8.36
				c-7.2-5.81-17.83-8.46-23.35-16.02c-2.55-3.5-4.67-8.15-6.44-12.17c-1.58-3.6-1.89-11.39-5.16-13.7
				c-0.34,5.56-0.49,11.77,2.01,16.81c3.15,6.34,10.23,9.72,12.36,16.47c0.16,0.52,0.05,0.92-0.33,1.19
				c-7.52-1.02-14.03,1.89-21.15-1.66c-3.43-1.71-6.69-6.21-10.75-6.01C166.18,115.1,186.08,111.85,197.04,115.7z"/>
			<path class="st1" d="M262.31,385.11c-0.89,0.19-1.06,0.62-1.11,1.05c-0.34,2.92,6.89,7.74,12.38,10.53
				c-0.46-2.95-0.65-5.9-0.75-8.86c-3.6-1.59-7.19-2.81-9.52-2.81C262.94,385.02,262.6,385.05,262.31,385.11z"/>
			<path class="st1" d="M348.57,251.92c-2.3,0.67-4.61,1.18-6.7,1.63l-1.38,0.3c-2.59,0.58-5.25,1.09-8.06,1.64
				c-10.3,2-20.95,4.06-29.03,9.34c-7.56,4.93-9.53,13.05-11.43,20.91c-1.45,5.99-2.15,12.44-2.64,17.96
				c-0.12,1.33-0.21,2.64-0.31,3.96c-0.11,1.56-0.24,3.15-0.4,4.74c1.07-0.82,2.14-1.65,3.18-2.5c0.18-0.15,0.34-0.3,0.51-0.45
				c-0.76-13.57,1.18-23.36,5.81-29.11c1.93-2.4,5.23-4.2,8.26-2.83c1.11,0.5,1.91,1.39,2.53,2.45c0.81-1.31,1.66-2.61,2.43-3.86
				c2.44-3.95,5.83-6.48,9.79-8.93c9.54-5.91,15.84-2.29,25.41-0.43c-2.33-2.97-5.4-3.91-8.25-5.94
				C341.21,257.13,345,254.64,348.57,251.92z"/>
			<path class="st1" d="M289.58,196.44c-6.59-3.24-12.44,3.78-19.6,1.52c-3.37-1.06-5.68-2.66-7.16-5.74
				c-0.85-1.76-0.8-4.71-2.71-5.32c-1.17,19.41,19.81,14.12,29.93,23.65c8.78,8.27,9.22,23.4,7.06,34.65
				c-0.97,5.03-2.66,9.22-7.16,12.08c-2.16,1.37-4.79,1.69-6.91,3.05c-2.81,1.81-3.68,5.16-6.1,7.39
				c-9.72,8.94-21.27,2.39-28.07-6.82c-0.91-1.23-1.61-2.44-2.17-3.64c-4.32-0.56-8.74-1.22-12.93-2.91
				c-11.92-4.81-18.95-14-20.9-27.32c-0.81-5.5-3.46-9.11-7.13-13.61c-2.71-3.32-4.61-7.44-5.82-12.6
				c-0.21-0.89-0.55-2.46-0.82-4.33c-1.47,4-2.42,8.15-2.68,12.35c3.86,4.47,7.15,9.52,10.1,15.53c1.69,3.45,2.41,6.97,3.1,10.38
				c0.97,4.79,1.89,9.31,5.33,13.53c4.21,5.15,9.88,7.3,15.88,9.59c1.74,0.66,3.54,1.35,5.3,2.11c9.49,4.11,19.07,13.09,24.41,22.88
				c6.63,12.16,9.86,24.75,9.86,38.51c0,2.69-0.14,5.26-0.27,7.74c-0.05,0.85-0.09,1.7-0.13,2.54c0.23-0.51,0.47-1.02,0.73-1.54
				c3.13-6.27,8.84-10.86,14.32-14.96c0.47-0.36,0.95-0.72,1.42-1.07c0.25-2.17,0.42-4.39,0.58-6.53c0.1-1.32,0.19-2.65,0.31-3.99
				c0.19-2.19,0.42-4.54,0.72-6.94c-5.48-8.13-6.44-16.09-2.92-24.3c1.96-4.57,5.48-8.56,8.89-12.41
				c5.33-6.03,10.36-11.72,9.97-19.47c-0.23-4.73-1.36-9.51-2.44-14.12c-1.5-6.37-3.05-12.96-2.38-19.71
				c0.57-5.73,2.83-11.15,7.34-17.58c3.3-4.7,3.9-10.31,3.01-15.41c-0.83,3.19-2.54,6.19-4.5,8.8c-1.98,2.64-11.14,15.25-12.12,6.36
				C290.29,190.4,289.66,193.44,289.58,196.44z"/>
			<path class="st1" d="M218.68,337.09c0.89,1.73,1.78,3.5,2.62,5.3c0.52,1.12,0.92,2.48,1.31,3.79c0.47,1.6,0.96,3.24,1.63,4.41
				c1.38-2.5,1.46-8.28,0.87-13.15c-0.55-4.55-2.68-8.97-4.99-12.6c-0.15,3.68-0.63,7.38-1.24,11.16
				C218.82,336.37,218.75,336.73,218.68,337.09z"/>
			<path class="st1" d="M231.24,355.93c-2.27,21.5,14.92,43.15,32.97,55.07c4.78,3.16,10.01,5.8,15.55,7.85
				c0.55,0.2,1.17,0.41,1.83,0.63c-1.43-2.93-2.78-5.83-3.99-8.81c-11.71-2.19-23.72-12.25-28.47-20.86
				c-3.21-5.81-6.5-13.72-3.94-18.42c1.06-1.94,2.52-3.16,4.35-3.62c3.72-0.93,8.06,1.48,11.43,3.69c1.78,1.17,3.55,2.45,5.26,3.69
				c1.56,1.13,3.16,2.29,4.77,3.36c0.55,0.37,1.09,0.7,1.63,1.01c-0.1-3.14-0.3-6.29-0.82-9.46c-5.2-3.73-9.37-9.21-12.78-14.16
				c-4-5.81-6.41-12.9-7.84-22.99c-0.67-4.73,0.25-10.63,1.22-16.88c1.95-12.57,3.97-25.57-5.94-31.82
				c-5.1-3.22-11.36-4.83-17.4-6.39c-1.01-0.26-2.02-0.52-3.02-0.79c-4.98-1.33-9.65-3.48-13.41-6.12c0.12,0.24,0.25,0.47,0.37,0.71
				c-0.11,5.39-0.8,10.82-0.27,16.18c0.03,0.25,0.08,0.5,0.11,0.75c-0.48-0.1-0.94-0.17-1.33-0.2c-5.33-0.44-10.25-0.67-15.34-2.18
				c-7.78-2.3-12.05-5.79-13.19-13.91c-3.67,1.06-0.33,7.25,0.6,9.89c-9.62-0.73-15.5-18.1-16.74-25.47
				c-4.83,0.27,1.83,12.71,2.88,15.49c2.42,6.42,5.57,11.68,11.67,15.63c5.19,3.36,11.44,3.3,16.72,5.83
				c5.47,2.62,11.77,7.35,16.14,11.43c1.66,1.55,3.02,3.15,4.18,4.78c0.06,0.21,0.11,0.43,0.16,0.64
				c5.23,4.25,9.67,8.55,12.37,16.44c2.63,7.7,1.55,17.37,0.6,25.89C231.46,353.88,231.34,354.92,231.24,355.93z M236.47,289.61
				c0.73-0.9,1.77-1.39,3.01-1.42c2.03-0.05,4.48,1.18,6.19,3.14c3.27,3.74,3.18,8.36,2.83,11.51c-0.47,4.28-1.54,6.68-3.38,7.55
				c-0.47,0.22-0.96,0.34-1.49,0.34c-0.93,0-1.94-0.35-3.04-1.05c-3.18-2.03-5.59-7.5-6.25-9.14
				C232.54,296.1,233.11,293.13,236.47,289.61z"/>
			<path class="st1" d="M241.67,308c1.09,0.69,1.96,0.9,2.59,0.59c0.77-0.37,1.78-1.7,2.25-5.97c0.49-4.41-0.26-7.58-2.35-9.98
				c-1.27-1.46-3.14-2.46-4.56-2.46c-0.02,0-0.05,0-0.07,0c-0.66,0.02-1.16,0.24-1.52,0.7l-0.06,0.07
				c-2.84,2.96-3.26,5.11-1.74,8.84C237.45,302.88,239.55,306.65,241.67,308z"/>
			<path class="st1" d="M211.85,358.31c-2.61,14.05,7.12,26.72,6.29,40.66c-0.34,5.67-2.59,12.15-5.7,17.96
				c0.47,0.38,0.89,0.79,1.3,1.18c1.31,1.28,2.39,2.37,4.6,2.36c2.99-0.03,6.18-2.32,8.52-6.13c4.22-6.87,3.67-15.41,2.58-22.86
				c-1.12-7.66-2.57-12.86-6.97-18.39c-5.14-6.45-7.41-10.42-8.1-18.27c-0.13-1.51-0.17-2.99-0.15-4.46
				C213.24,352.96,212.35,355.59,211.85,358.31z"/>
			<path class="st1" d="M314.28,449.51l-0.12-0.01c-2.5-0.26-5.08-0.53-7.63-0.89c-3.65-0.5-6.9-2-10.05-3.44
				c-1.12-0.51-2.28-1.04-3.44-1.52c-8.24-3.39-14.82-4.21-20.11-2.5c-0.76,0.25-1.05,0.46-1.15,0.55c0.24,0.5,1.74,1.5,2.57,2.05
				c1.74,1.16,3.62,2.23,5.43,3.27c0.88,0.5,1.76,1.01,2.63,1.52c0.78,0.46,1.54,0.94,2.3,1.42c12.45,1.13,24.35,5.68,37.19,4.87
				C321.27,451.31,317.68,450.28,314.28,449.51z"/>
			<path class="st1" d="M256.86,447.79c-3.34-2.46-6.8-5-10.26-7.28c-5.24-3.46-9.35-4.75-15.17-4.75c-0.02,0-0.04,0-0.06,0
				c-7.9,0.01-13.36,3.83-19.14,7.87c-4.43,3.1-9.01,6.31-14.83,7.75c-3.89,0.96-7.79,0.21-11.55-0.52
				c-2.8-0.54-5.69-1.09-8.56-0.95c2.98,0.63,6.07,1.84,9.67,3.6c7.35,3.59,17.83,3.96,25.97,2.54c9.57-1.68,17.34-6.35,27.41-4.41
				c5.87,1.13,11.74,2.95,17.93,2.11c1.78-0.24,3.49-0.68,5.18-1.18C261.23,451,259.04,449.39,256.86,447.79z"/>
			<path class="st1" d="M349.62,228.98c-5.32,4.71-12,3.9-18.01,6.69c0.89,0.15,1.77,0.34,2.6,0.52c1.07,0.23,2.08,0.46,3.03,0.59
				c4.02,0.54,8.21-0.23,11.23-2.06c5.18-3.15,6.74-8.98,5.94-14.79C353.94,223.18,352.72,226.24,349.62,228.98z"/>
			<path class="st1" d="M410.43,202.47c-5.11,2.63-7.68,6.5-11.93,9.95c-3.59,2.92-9.61,3.2-14.09,3.86
				c-4.2,0.62-7.71,2.09-11.41,3.09c-1.04-4.64,3.81-7.04,6.62-9.58c3.1-2.79,4.79-5.72,6.01-9.7c1.39-4.57,0.78-9.31,1.68-13.91
				c0.68-3.51,1.24-7.11,1.99-10.62c0.83-3.9,3.92-7.67,4.53-11.31c1.25-7.49-4.54,2.78-5.62,4.72c-2.82,5.04-5.32,9.5-6.29,15.34
				c-0.92,5.53,0.19,11.65-2.16,16.94c-2,4.5-6.48,4.69-10.16,7.35c-2.34,1.69-6.49,7.18-8.87,4.56c-2.1-2.31-0.47-8.96-0.04-11.65
				c0.6-3.79,1.38-7.49,3-10.97c0.55-1.19,5.18-8.93,0.72-6.01c-2.11,1.39-3.79,7.6-5.12,9.9c-2.11,3.67-4.03,7.51-4.5,11.76
				c-0.26,2.4-0.2,4.79-0.15,7.13c3.38,8.14,2.8,18.28-5.14,23.09c-3.4,2.06-8.09,2.93-12.54,2.33c-1.03-0.14-2.13-0.38-3.19-0.61
				c-1.8-0.4-3.56-0.78-5.15-0.78c-2.38,1.53-5.11,3.38-7.58,3.45c-4.49,0.13-6.16-7.21-7.36-10.32c-1.8-4.66-5.4-9.94-5.6-15.04
				c-0.24-6.14,1.76-11.14,5.27-16.33c3.08-4.56,3.62-7.93,4.71-13.22c2-9.66,9.06-17.17,16.45-23.19
				c9.02-7.35,16.43-11.67,18.15-24.01c0.68-4.89,1.26-9.97,2.61-14.79c1.01-3.6,2.85-6.84,2.44-10.68
				c-2.3,0.24-3.14,3.99-4.67,5.47c-2.65-6.94,0.51-16.83-3.04-23.38c-3.78,4.44-1.88,10.75-1.12,16.08
				c0.96,6.72,2,15.24,0.38,21.87c-1.55,6.35-5.93,11.67-11.38,15.15c-4.12,2.63-9.49,3.17-13.24,6.19
				c-1.79,1.44-4.72,8.47-6.65,8.55c-2.39,0.1-3.37-6.15-3.61-7.81c-1.31-8.8,1.74-14.48,5.82-21.94c1.81-3.31,9.27-15.2,4.61-18.08
				c-1.82,2.05-2,5.66-3.31,8.2c-1.4,2.71-3.67,5.22-5.37,7.75c-1.74,2.58-4.09,4.95-4.97,8.02c-0.7,2.45-0.25,5.48-1.5,7.59
				c-4.72-2.93-3.51-13.99-2.68-18.47c1.14-6.12,3.53-13.67,0.43-19.57c0.87,7.47-4.25,16.4-5.18,23.94
				c-0.79,6.37-0.35,12.81,1.42,18.98c1.56,5.45,5.56,10.38,6.29,15.97c2.62,6.74,3.08,15.45-1.78,22.37
				c-4.3,6.13-6.45,11.25-6.99,16.63c-0.64,6.42,0.87,12.84,2.33,19.05c1.11,4.71,2.25,9.57,2.49,14.48
				c0.42,8.56-5.11,14.83-10.47,20.9c-3.3,3.74-6.71,7.6-8.55,11.88c-2.95,6.88-2.46,13.58,1.5,20.41c0.4-2.74,0.9-5.52,1.55-8.22
				c2-8.23,4.06-16.75,12.28-22.11c8.41-5.49,19.26-7.59,29.74-9.63c2.8-0.54,5.44-1.05,8.01-1.63l1.39-0.31
				c3.58-0.78,7.82-1.71,11.46-3.38c1.06-1.06,2.05-2.22,2.92-3.53c5.56-8.39,11.14-12.89,21.3-14.54
				c3.84-0.63,8.97-1.26,12.38-3.09c4.68-2.52,8.08-8.16,11.56-11.99c6.01-6.62,14.94-10.76,21.73-16.77
				C418.39,198.9,414.4,200.43,410.43,202.47z"/>
			<path class="st1" d="M345.64,450.09c1.6-0.07,3.13-0.23,4.62-0.44c-1.31-0.77-2.6-1.64-3.88-2.63c-1.37-1.07-2.73-2.4-4.04-3.69
				c-2.28-2.25-4.64-4.57-7.17-5.61c-3.68-1.51-8.03-2.07-11.95-1.54c-3.69,0.51-6.94,2.02-10.38,3.62c-1.33,0.62-2.7,1.26-4.1,1.84
				c-0.46,0.19-0.92,0.39-1.38,0.59c-1.62,0.71-3.29,1.43-5.05,1.77c-0.64,0.12-1.4,0.2-2.14,0.28c-0.21,0.02-0.44,0.05-0.68,0.07
				c2.38,1.04,4.73,1.93,7.3,2.28c2.52,0.35,5.09,0.62,7.57,0.88l0.54,0.06c2.19,0.23,4.62,0.19,7.2,0.15
				c2.11-0.03,4.29-0.07,6.35,0.06c2.21,0.13,4.38,0.62,6.49,1.1c1.59,0.36,3.24,0.73,4.86,0.93c0.01,0,0.03,0.01,0.04,0.01
				C341.72,450.04,343.63,450.18,345.64,450.09z"/>
			<path class="st1" d="M140.64,227.18c10.96-7.63,24.23-15.91,38.07-9.1c9.67,4.76,15.77,10.22,18.15,16.23
				c1.38,3.49,2.42,9,2.66,13.64c2.26,4.45,4.84,8.62,7.45,12.96c1.04,1.73,2.06,3.45,3.04,5.17c0.12,0.13,0.22,0.27,0.35,0.4
				c3.86,3.78,9.77,6.93,16.23,8.65c0.99,0.26,1.99,0.52,3,0.78c6.19,1.6,12.6,3.25,17.97,6.63c11.02,6.95,8.8,21.22,6.85,33.82
				c-0.95,6.09-1.84,11.85-1.22,16.29c1.38,9.77,3.69,16.59,7.5,22.13c2.92,4.24,6.4,8.87,10.57,12.34
				c-0.27-1.32-0.56-2.63-0.86-3.9c0.3-1.16,0.64-2.28,1.03-3.33c2.2-5.86,5.48-9.72,10.36-13.46c3.15-2.42,6.72-4.3,9.64-7.03
				c0.66-0.62,3.1-2.16,3.29-3.09c0.28-1.44-1.08-0.9-2.06-0.45c-1.95,0.9-3.75,2.28-5.58,3.42c-2.97,1.85-5.78,3.73-8.56,5.78
				c0.72-3.5,2.31-8.83,1.57-10.69c-1.74,2.91-3.62,7.97-4.36,9.54c-0.62,1.34-1.35,3.03-1.83,4.67c-1.97,1.46-4.01,2.76-5.87,4.13
				c-0.89-4.86-1.23-9.65-0.12-14.76c-0.1-2.99,0.05-5.95,0.21-8.99c0.13-2.45,0.27-4.99,0.27-7.63c0-13.41-3.14-25.69-9.61-37.55
				c-5.14-9.42-14.35-18.06-23.45-22c-1.72-0.75-3.5-1.42-5.22-2.08c-5.98-2.28-12.17-4.63-16.71-10.19
				c-3.76-4.6-4.77-9.58-5.75-14.4c-0.67-3.29-1.35-6.68-2.93-9.9c-2.87-5.85-6.08-10.77-9.83-15.11
				c-5.37-2.13-10.7-4.57-16.26-4.62c-1.46-0.01-2.7,0.05-3.79,0.16c-0.2-2.27,0.27-4.53,1.21-8.01c-2.72,1.68-4.94,5.5-7.37,8.98
				c-0.17,0.01-0.33,0.01-0.51,0.03c-2.44,0.24-7.8,2.47-9.88-0.26c-1.78-2.34-0.12-6.93,0.88-9.31c1.27-3.01,3.88-4.26,6-6.59
				c1.94-2.13,3.07-4.33,3.64-7.18c0.42-2.14,0.25-4.42,0.14-6.67c-0.06-1.17-0.08-2.35-0.08-3.53c1.03-3.21,2.54-6.25,4.41-9.63
				c2.44-4.41,3.74-8.62,3.73-13.75c-0.57,3.71-3.2,6.96-5.45,9.91c-1.49,1.96-2.17,3.78-2.78,5.7c-0.17-3.11-0.62-6.17-1.83-9.12
				c-3.02-7.38-1.53-15.19-3.76-22.55c-7.43,9-0.09,21.74,0.92,31.49c0.55,5.3,0.46,11.02-1.65,16.02
				c-1.58-1.86-4.19-4.05-4.82-5.29c-1.05-2.08-1.79-4.33-2.51-6.5c-0.51-1.53-0.97-4.77-2.09-5.63c-2.8,2.31,0.76,9.58,2.11,12.01
				c2.15,3.85,3.55,6.85,4.02,10.79c-2.25,2.8-4.9,5.29-6.91,8.29c-2.29,3.42-3.17,10.03-6.01,12.62c-2.3,2.1-22.11,2.84-25.01,2.3
				c-3.73-0.69-6.98-2.43-9.8-5.17c-3.6-3.51-3.21-7.14-5.1-11.51c-2.97,10.34,3.47,20.07,13.03,23.79
				c-2.62,4.75-11.36,5.02-15.96,6.94c-6.64,2.78-11.9,7.73-19.57,5.07c-4.97-1.72-7-6.19-9.15-10.69c-1.41-2.94-2.29-8.4-5.97-9.09
				c2.82,5.59,3.94,10.99,5.84,16.92c3.74,11.66,18.87,13.78,29.49,12.07c3.39-0.54,6.21-2.2,9.11-3.87
				c4.7-2.71,9.67-4.83,14.61-6.63c-3.68,8.28-7.99,17.01-17.23,20.39c3.45,3.22,11.7-5.57,14.33-7.35
				c0.15,12.47-18.52,18.9-16.98,31.23c1.39-3.87,2.13-7.39,5.48-10.19c3.18-2.65,6.82-4.67,9.82-7.65
				C130.97,246.36,130.66,232.59,140.64,227.18z"/>
			<path class="st1" d="M245.91,426.88c0.6,0.05,1.12-0.16,1.64-0.64c2.27-2.15-0.32-6.79-2.04-9.86c-0.38-0.69-0.73-1.3-0.98-1.81
				c-0.2-0.4-0.38-0.9-0.6-1.48c-0.49-1.31-1.3-3.49-2.27-3.75c-0.4-0.1-0.89,0.17-1.28,0.46c-1.9,3.72-2.63,8.97,0.01,12.48
				C242.6,425.22,244.45,426.76,245.91,426.88z"/>
			<path class="st1" d="M222,184.34c-0.4-0.22-1.06-0.45-2.14,0.1c-3.1,1.59-4.5,7.5-4.66,10.86c-0.38,8.09,4.61,14.38,10.35,20.23
				c-4.42-9.1-4.66-19.76-2.06-29.6C222.98,185.09,222.47,184.59,222,184.34z"/>
			<path class="st1" d="M222,158.94c2.06-3.59,3.08-7.43,2.87-10.79c-0.3-4.98-3.84-8.75-7.25-12.39c-0.19-0.21-0.38-0.41-0.58-0.62
				c1.45,3.43,2.47,7.11,3.04,10.92c0.99,6.63-0.54,12.79-3.19,18.63C219.29,162.73,220.8,161.04,222,158.94z"/>
			<path class="st1" d="M160.53,452.02c3.52-1.35,6.53-2.15,9.35-2.47c2.67-0.92,5.21-1.51,7.23-1.63c3.14-0.19,6.18,0.41,9.12,0.98
				c3.72,0.72,7.23,1.4,10.69,0.54c5.46-1.35,9.88-4.45,14.16-7.45c5.78-4.04,11.75-8.22,20.28-8.23c0.02,0,0.04,0,0.06,0
				c6.18,0,10.75,1.43,16.28,5.08c3.49,2.31,6.97,4.87,10.34,7.34c2.59,1.9,5.2,3.82,7.86,5.65c1.9-0.58,3.81-1.14,5.81-1.49
				c2.96-0.51,5.87-0.68,8.75-0.62c-0.56-0.32-1.12-0.65-1.68-0.97c-1.84-1.05-3.74-2.14-5.54-3.34c-1.89-1.26-3.68-2.45-3.47-4
				c0.17-1.26,1.53-1.84,2.54-2.16c5.76-1.86,12.79-1.03,21.49,2.56c0.92,0.38,1.82,0.78,2.71,1.19c0.8-0.42,2.03-0.56,3.47-0.71
				c0.69-0.07,1.41-0.14,1.96-0.25c1.54-0.3,3.11-0.98,4.62-1.64c0.47-0.21,0.94-0.41,1.41-0.6c1.36-0.56,2.72-1.19,4.02-1.8
				c3.42-1.6,6.96-3.25,10.95-3.79c4.26-0.59,8.99,0.02,12.99,1.67c2.89,1.19,5.4,3.65,7.82,6.03c1.33,1.31,2.58,2.54,3.87,3.54
				c1.51,1.18,3.52,2.54,5.87,3.7c6.02-1.05,11.48-2.27,18.06,0c-5.16-4.92-10.58-4.07-17.66-5.04c-8.05-1.1-10.27-6.89-16.01-11.99
				c-9.29-8.26-17.01,0.03-27.91,0.01c-11.31-0.01-18.78,6.83-24.97-5.74c-0.73-1.49-1.47-2.96-2.19-4.41
				c-1.39-0.44-2.69-0.85-3.76-1.25c-5.68-2.11-11.05-4.82-15.95-8.06c-18.55-12.26-36.21-34.62-33.85-56.95
				c0.11-1.01,0.22-2.05,0.34-3.1c0.93-8.32,1.99-17.75-0.5-25.02c-2.17-6.36-5.62-10.28-9.73-13.85c0,0.01,0.01,0.03,0.01,0.04
				c0.49,2.52,0.72,5.02,0.77,7.52c2.99,4.17,6.23,9.9,6.96,15.9c0.26,2.11,1.35,12.78-2.24,15.78l-0.71,0.6l-0.65-0.67
				c-1.4-1.45-2.11-3.85-2.8-6.17c-0.39-1.3-0.75-2.53-1.21-3.51c-0.49-1.06-1.01-2.11-1.54-3.16c-0.39,1.36-0.85,2.7-1.34,4.04
				c-0.33,3.56-0.57,6.99-0.25,10.53c0.68,7.68,2.97,11.3,7.67,17.2c4.66,5.85,6.24,11.53,7.39,19.34c1.15,7.81,1.7,16.79-2.85,24.2
				c-1.3,2.11-4.89,7.03-10.21,7.09c-0.03,0-0.06,0-0.09,0c-2.94,0-4.53-1.55-5.93-2.93c-0.3-0.29-0.59-0.58-0.89-0.83
				c-0.03,0.05-0.06,0.11-0.09,0.16c-8.84-0.02-19.44-4.55-25.71-6.97c-13.48-5.2-23.45,6.94-30.51,17.37
				c-3.71,5.48-7.49,9.91-12.19,13.58c3-0.21,5.99-0.87,9.07-2.27c2.84-1.29,5.24-3.18,7.7-5.22c2.6-3.54,5.07-7.14,8.46-10.13
				c6.99-6.15,16.45-1.75,22.77,5.86c-1.72-0.76-3.44-1.69-5.29-2.14c-3.74-0.92-5.62,0.05-9.23,0.88
				c-6.78,1.57-12.22,5.59-17.9,9.05c-1.75,1.34-3.61,2.58-5.68,3.52c-4.19,1.9-8.24,2.52-12.28,2.52c-0.7,0-1.39-0.04-2.09-0.07
				c-7.7,0.4-17.97,1.36-19.01,8.88c8.48-4.65,16.57-1.57,25.29-2.51c8.25-0.89,14.87-5.83,23.51-6.02
				C165.1,446.52,161.83,448.88,160.53,452.02z M238.72,408.69l0.09-0.18l0.15-0.13c1.11-0.92,2.19-1.25,3.22-0.97
				c1.96,0.52,2.88,3,3.62,4.98c0.19,0.51,0.37,0.98,0.52,1.3c0.24,0.48,0.56,1.06,0.93,1.71c2.02,3.61,5.07,9.06,1.67,12.29
				c-0.84,0.8-1.79,1.2-2.84,1.2c-0.12,0-0.23,0-0.35-0.02c-2.77-0.23-5.28-3.19-6.93-5.39
				C235.6,419.21,236.45,412.98,238.72,408.69z"/>
		</g>
	</g>
</g>
</svg>
